<svg width="163" height="159" viewBox="0 0 163 159" fill="none" xmlns="http://www.w3.org/2000/svg">
<g clip-path="url(#clip0_22_50)">
<mask id="mask0_22_50" style="mask-type:luminance" maskUnits="userSpaceOnUse" x="1" y="1" width="161" height="157">
<path d="M5.2162 39.432H1.3042V43.248H5.2162V39.432Z" fill="white"/>
<path d="M5.2162 43.248H1.3042V47.064H5.2162V43.248Z" fill="white"/>
<path d="M5.2162 50.88H1.3042V54.696H5.2162V50.88Z" fill="white"/>
<path d="M5.2162 62.328H1.3042V66.144H5.2162V62.328Z" fill="white"/>
<path d="M5.2162 66.144H1.3042V69.96H5.2162V66.144Z" fill="white"/>
<path d="M5.2162 77.592H1.3042V81.408H5.2162V77.592Z" fill="white"/>
<path d="M5.2162 81.408H1.3042V85.224H5.2162V81.408Z" fill="white"/>
<path d="M5.2162 108.12H1.3042V111.936H5.2162V108.12Z" fill="white"/>
<path d="M5.2162 111.936H1.3042V115.752H5.2162V111.936Z" fill="white"/>
<path d="M5.2162 115.752H1.3042V119.568H5.2162V115.752Z" fill="white"/>
<path d="M9.12831 35.616H5.21631V39.432H9.12831V35.616Z" fill="white"/>
<path d="M9.12831 43.248H5.21631V47.064H9.12831V43.248Z" fill="white"/>
<path d="M9.12831 47.064H5.21631V50.88H9.12831V47.064Z" fill="white"/>
<path d="M9.12831 50.88H5.21631V54.696H9.12831V50.88Z" fill="white"/>
<path d="M9.12831 54.696H5.21631V58.512H9.12831V54.696Z" fill="white"/>
<path d="M9.12831 58.512H5.21631V62.328H9.12831V58.512Z" fill="white"/>
<path d="M9.12831 62.328H5.21631V66.144H9.12831V62.328Z" fill="white"/>
<path d="M9.12831 73.776H5.21631V77.592H9.12831V73.776Z" fill="white"/>
<path d="M9.12831 77.592H5.21631V81.408H9.12831V77.592Z" fill="white"/>
<path d="M9.12831 108.12H5.21631V111.936H9.12831V108.12Z" fill="white"/>
<path d="M9.12831 115.752H5.21631V119.568H9.12831V115.752Z" fill="white"/>
<path d="M9.12831 119.568H5.21631V123.384H9.12831V119.568Z" fill="white"/>
<path d="M13.0404 31.8H9.12842V35.616H13.0404V31.8Z" fill="white"/>
<path d="M13.0404 43.248H9.12842V47.064H13.0404V43.248Z" fill="white"/>
<path d="M13.0404 50.88H9.12842V54.696H13.0404V50.88Z" fill="white"/>
<path d="M13.0404 58.512H9.12842V62.328H13.0404V58.512Z" fill="white"/>
<path d="M13.0404 66.144H9.12842V69.96H13.0404V66.144Z" fill="white"/>
<path d="M13.0404 73.776H9.12842V77.592H13.0404V73.776Z" fill="white"/>
<path d="M13.0404 77.592H9.12842V81.408H13.0404V77.592Z" fill="white"/>
<path d="M13.0404 104.304H9.12842V108.12H13.0404V104.304Z" fill="white"/>
<path d="M16.952 31.8H13.04V35.616H16.952V31.8Z" fill="white"/>
<path d="M16.952 35.616H13.04V39.432H16.952V35.616Z" fill="white"/>
<path d="M16.952 47.064H13.04V50.88H16.952V47.064Z" fill="white"/>
<path d="M16.952 54.696H13.04V58.512H16.952V54.696Z" fill="white"/>
<path d="M16.952 85.224H13.04V89.04H16.952V85.224Z" fill="white"/>
<path d="M16.952 92.856H13.04V96.672H16.952V92.856Z" fill="white"/>
<path d="M16.952 108.12H13.04V111.936H16.952V108.12Z" fill="white"/>
<path d="M16.952 115.752H13.04V119.568H16.952V115.752Z" fill="white"/>
<path d="M16.952 123.384H13.04V127.2H16.952V123.384Z" fill="white"/>
<path d="M20.8641 35.616H16.9521V39.432H20.8641V35.616Z" fill="white"/>
<path d="M20.8641 39.432H16.9521V43.248H20.8641V39.432Z" fill="white"/>
<path d="M20.8641 43.248H16.9521V47.064H20.8641V43.248Z" fill="white"/>
<path d="M20.8641 47.064H16.9521V50.88H20.8641V47.064Z" fill="white"/>
<path d="M20.8641 66.144H16.9521V69.96H20.8641V66.144Z" fill="white"/>
<path d="M20.8641 73.776H16.9521V77.592H20.8641V73.776Z" fill="white"/>
<path d="M20.8641 77.592H16.9521V81.408H20.8641V77.592Z" fill="white"/>
<path d="M20.8641 85.224H16.9521V89.04H20.8641V85.224Z" fill="white"/>
<path d="M20.8641 92.856H16.9521V96.672H20.8641V92.856Z" fill="white"/>
<path d="M20.8641 100.488H16.9521V104.304H20.8641V100.488Z" fill="white"/>
<path d="M20.8641 108.12H16.9521V111.936H20.8641V108.12Z" fill="white"/>
<path d="M20.8641 119.568H16.9521V123.384H20.8641V119.568Z" fill="white"/>
<path d="M24.7763 35.616H20.8643V39.432H24.7763V35.616Z" fill="white"/>
<path d="M24.7763 47.064H20.8643V50.88H24.7763V47.064Z" fill="white"/>
<path d="M24.7763 69.96H20.8643V73.776H24.7763V69.96Z" fill="white"/>
<path d="M24.7763 85.224H20.8643V89.04H24.7763V85.224Z" fill="white"/>
<path d="M24.7763 92.856H20.8643V96.672H24.7763V92.856Z" fill="white"/>
<path d="M24.7763 96.672H20.8643V100.488H24.7763V96.672Z" fill="white"/>
<path d="M24.7763 108.12H20.8643V111.936H24.7763V108.12Z" fill="white"/>
<path d="M24.7763 111.936H20.8643V115.752H24.7763V111.936Z" fill="white"/>
<path d="M28.6884 31.8H24.7764V35.616H28.6884V31.8Z" fill="white"/>
<path d="M28.6884 39.432H24.7764V43.248H28.6884V39.432Z" fill="white"/>
<path d="M28.6884 47.064H24.7764V50.88H28.6884V47.064Z" fill="white"/>
<path d="M28.6884 54.696H24.7764V58.512H28.6884V54.696Z" fill="white"/>
<path d="M28.6884 62.328H24.7764V66.144H28.6884V62.328Z" fill="white"/>
<path d="M28.6884 69.96H24.7764V73.776H28.6884V69.96Z" fill="white"/>
<path d="M28.6884 77.592H24.7764V81.408H28.6884V77.592Z" fill="white"/>
<path d="M28.6884 85.224H24.7764V89.04H28.6884V85.224Z" fill="white"/>
<path d="M28.6884 92.856H24.7764V96.672H28.6884V92.856Z" fill="white"/>
<path d="M28.6884 100.488H24.7764V104.304H28.6884V100.488Z" fill="white"/>
<path d="M28.6884 108.12H24.7764V111.936H28.6884V108.12Z" fill="white"/>
<path d="M28.6884 115.752H24.7764V119.568H28.6884V115.752Z" fill="white"/>
<path d="M28.6884 123.384H24.7764V127.2H28.6884V123.384Z" fill="white"/>
<path d="M32.6 35.616H28.688V39.432H32.6V35.616Z" fill="white"/>
<path d="M32.6 39.432H28.688V43.248H32.6V39.432Z" fill="white"/>
<path d="M32.6 47.064H28.688V50.88H32.6V47.064Z" fill="white"/>
<path d="M32.6 50.88H28.688V54.696H32.6V50.88Z" fill="white"/>
<path d="M32.6 66.144H28.688V69.96H32.6V66.144Z" fill="white"/>
<path d="M32.6 69.96H28.688V73.776H32.6V69.96Z" fill="white"/>
<path d="M32.6 73.776H28.688V77.592H32.6V73.776Z" fill="white"/>
<path d="M32.6 77.592H28.688V81.408H32.6V77.592Z" fill="white"/>
<path d="M32.6 89.04H28.688V92.856H32.6V89.04Z" fill="white"/>
<path d="M32.6 104.304H28.688V108.12H32.6V104.304Z" fill="white"/>
<path d="M32.6 108.12H28.688V111.936H32.6V108.12Z" fill="white"/>
<path d="M32.6 115.752H28.688V119.568H32.6V115.752Z" fill="white"/>
<path d="M32.6 119.568H28.688V123.384H32.6V119.568Z" fill="white"/>
<path d="M36.5121 12.72H32.6001V16.536H36.5121V12.72Z" fill="white"/>
<path d="M36.5121 16.536H32.6001V20.352H36.5121V16.536Z" fill="white"/>
<path d="M36.5121 24.168H32.6001V27.984H36.5121V24.168Z" fill="white"/>
<path d="M36.5121 27.984H32.6001V31.8H36.5121V27.984Z" fill="white"/>
<path d="M36.5121 43.248H32.6001V47.064H36.5121V43.248Z" fill="white"/>
<path d="M36.5121 47.064H32.6001V50.88H36.5121V47.064Z" fill="white"/>
<path d="M36.5121 50.88H32.6001V54.696H36.5121V50.88Z" fill="white"/>
<path d="M36.5121 62.328H32.6001V66.144H36.5121V62.328Z" fill="white"/>
<path d="M36.5121 66.144H32.6001V69.96H36.5121V66.144Z" fill="white"/>
<path d="M36.5121 73.776H32.6001V77.592H36.5121V73.776Z" fill="white"/>
<path d="M36.5121 77.592H32.6001V81.408H36.5121V77.592Z" fill="white"/>
<path d="M36.5121 81.408H32.6001V85.224H36.5121V81.408Z" fill="white"/>
<path d="M36.5121 85.224H32.6001V89.04H36.5121V85.224Z" fill="white"/>
<path d="M36.5121 96.672H32.6001V100.488H36.5121V96.672Z" fill="white"/>
<path d="M36.5121 100.488H32.6001V104.304H36.5121V100.488Z" fill="white"/>
<path d="M36.5121 104.304H32.6001V108.12H36.5121V104.304Z" fill="white"/>
<path d="M36.5121 111.936H32.6001V115.752H36.5121V111.936Z" fill="white"/>
<path d="M36.5121 142.464H32.6001V146.28H36.5121V142.464Z" fill="white"/>
<path d="M36.5121 146.28H32.6001V150.096H36.5121V146.28Z" fill="white"/>
<path d="M40.4242 5.088H36.5122V8.904H40.4242V5.088Z" fill="white"/>
<path d="M40.4242 16.536H36.5122V20.352H40.4242V16.536Z" fill="white"/>
<path d="M40.4242 20.352H36.5122V24.168H40.4242V20.352Z" fill="white"/>
<path d="M40.4242 31.8H36.5122V35.616H40.4242V31.8Z" fill="white"/>
<path d="M40.4242 39.432H36.5122V43.248H40.4242V39.432Z" fill="white"/>
<path d="M40.4242 43.248H36.5122V47.064H40.4242V43.248Z" fill="white"/>
<path d="M40.4242 47.064H36.5122V50.88H40.4242V47.064Z" fill="white"/>
<path d="M40.4242 50.88H36.5122V54.696H40.4242V50.88Z" fill="white"/>
<path d="M40.4242 54.696H36.5122V58.512H40.4242V54.696Z" fill="white"/>
<path d="M40.4242 58.512H36.5122V62.328H40.4242V58.512Z" fill="white"/>
<path d="M40.4242 69.96H36.5122V73.776H40.4242V69.96Z" fill="white"/>
<path d="M40.4242 81.408H36.5122V85.224H40.4242V81.408Z" fill="white"/>
<path d="M40.4242 89.04H36.5122V92.856H40.4242V89.04Z" fill="white"/>
<path d="M40.4242 96.672H36.5122V100.488H40.4242V96.672Z" fill="white"/>
<path d="M40.4242 104.304H36.5122V108.12H40.4242V104.304Z" fill="white"/>
<path d="M40.4242 111.936H36.5122V115.752H40.4242V111.936Z" fill="white"/>
<path d="M40.4242 115.752H36.5122V119.568H40.4242V115.752Z" fill="white"/>
<path d="M40.4242 119.568H36.5122V123.384H40.4242V119.568Z" fill="white"/>
<path d="M40.4242 127.2H36.5122V131.016H40.4242V127.2Z" fill="white"/>
<path d="M40.4242 134.832H36.5122V138.648H40.4242V134.832Z" fill="white"/>
<path d="M40.4242 138.648H36.5122V142.464H40.4242V138.648Z" fill="white"/>
<path d="M40.4242 150.096H36.5122V153.912H40.4242V150.096Z" fill="white"/>
<path d="M44.3363 1.272H40.4243V5.088H44.3363V1.272Z" fill="white"/>
<path d="M44.3363 5.088H40.4243V8.904H44.3363V5.088Z" fill="white"/>
<path d="M44.3363 8.904H40.4243V12.72H44.3363V8.904Z" fill="white"/>
<path d="M44.3363 12.72H40.4243V16.536H44.3363V12.72Z" fill="white"/>
<path d="M44.3363 24.168H40.4243V27.984H44.3363V24.168Z" fill="white"/>
<path d="M44.3363 27.984H40.4243V31.8H44.3363V27.984Z" fill="white"/>
<path d="M44.3363 31.8H40.4243V35.616H44.3363V31.8Z" fill="white"/>
<path d="M44.3363 43.248H40.4243V47.064H44.3363V43.248Z" fill="white"/>
<path d="M44.3363 54.696H40.4243V58.512H44.3363V54.696Z" fill="white"/>
<path d="M44.3363 62.328H40.4243V66.144H44.3363V62.328Z" fill="white"/>
<path d="M44.3363 66.144H40.4243V69.96H44.3363V66.144Z" fill="white"/>
<path d="M44.3363 69.96H40.4243V73.776H44.3363V69.96Z" fill="white"/>
<path d="M44.3363 77.592H40.4243V81.408H44.3363V77.592Z" fill="white"/>
<path d="M44.3363 81.408H40.4243V85.224H44.3363V81.408Z" fill="white"/>
<path d="M44.3363 89.04H40.4243V92.856H44.3363V89.04Z" fill="white"/>
<path d="M44.3363 92.856H40.4243V96.672H44.3363V92.856Z" fill="white"/>
<path d="M44.3363 96.672H40.4243V100.488H44.3363V96.672Z" fill="white"/>
<path d="M44.3363 104.304H40.4243V108.12H44.3363V104.304Z" fill="white"/>
<path d="M44.3363 111.936H40.4243V115.752H44.3363V111.936Z" fill="white"/>
<path d="M44.3363 115.752H40.4243V119.568H44.3363V115.752Z" fill="white"/>
<path d="M44.3363 131.016H40.4243V134.832H44.3363V131.016Z" fill="white"/>
<path d="M44.3363 138.648H40.4243V142.464H44.3363V138.648Z" fill="white"/>
<path d="M44.3363 146.28H40.4243V150.096H44.3363V146.28Z" fill="white"/>
<path d="M48.2484 5.088H44.3364V8.904H48.2484V5.088Z" fill="white"/>
<path d="M48.2484 8.904H44.3364V12.72H48.2484V8.904Z" fill="white"/>
<path d="M48.2484 16.536H44.3364V20.352H48.2484V16.536Z" fill="white"/>
<path d="M48.2484 27.984H44.3364V31.8H48.2484V27.984Z" fill="white"/>
<path d="M48.2484 35.616H44.3364V39.432H48.2484V35.616Z" fill="white"/>
<path d="M48.2484 39.432H44.3364V43.248H48.2484V39.432Z" fill="white"/>
<path d="M48.2484 54.696H44.3364V58.512H48.2484V54.696Z" fill="white"/>
<path d="M48.2484 66.144H44.3364V69.96H48.2484V66.144Z" fill="white"/>
<path d="M48.2484 73.776H44.3364V77.592H48.2484V73.776Z" fill="white"/>
<path d="M48.2484 81.408H44.3364V85.224H48.2484V81.408Z" fill="white"/>
<path d="M48.2484 92.856H44.3364V96.672H48.2484V92.856Z" fill="white"/>
<path d="M48.2484 111.936H44.3364V115.752H48.2484V111.936Z" fill="white"/>
<path d="M48.2484 119.568H44.3364V123.384H48.2484V119.568Z" fill="white"/>
<path d="M48.2484 123.384H44.3364V127.2H48.2484V123.384Z" fill="white"/>
<path d="M48.2484 127.2H44.3364V131.016H48.2484V127.2Z" fill="white"/>
<path d="M48.2484 138.648H44.3364V142.464H48.2484V138.648Z" fill="white"/>
<path d="M48.2484 142.464H44.3364V146.28H48.2484V142.464Z" fill="white"/>
<path d="M48.2484 150.096H44.3364V153.912H48.2484V150.096Z" fill="white"/>
<path d="M48.2484 153.912H44.3364V157.728H48.2484V153.912Z" fill="white"/>
<path d="M52.16 5.088H48.248V8.904H52.16V5.088Z" fill="white"/>
<path d="M52.16 8.904H48.248V12.72H52.16V8.904Z" fill="white"/>
<path d="M52.16 12.72H48.248V16.536H52.16V12.72Z" fill="white"/>
<path d="M52.16 20.352H48.248V24.168H52.16V20.352Z" fill="white"/>
<path d="M52.16 24.168H48.248V27.984H52.16V24.168Z" fill="white"/>
<path d="M52.16 27.984H48.248V31.8H52.16V27.984Z" fill="white"/>
<path d="M52.16 43.248H48.248V47.064H52.16V43.248Z" fill="white"/>
<path d="M52.16 47.064H48.248V50.88H52.16V47.064Z" fill="white"/>
<path d="M52.16 50.88H48.248V54.696H52.16V50.88Z" fill="white"/>
<path d="M52.16 58.512H48.248V62.328H52.16V58.512Z" fill="white"/>
<path d="M52.16 66.144H48.248V69.96H52.16V66.144Z" fill="white"/>
<path d="M52.16 69.96H48.248V73.776H52.16V69.96Z" fill="white"/>
<path d="M52.16 81.408H48.248V85.224H52.16V81.408Z" fill="white"/>
<path d="M52.16 89.04H48.248V92.856H52.16V89.04Z" fill="white"/>
<path d="M52.16 96.672H48.248V100.488H52.16V96.672Z" fill="white"/>
<path d="M52.16 104.304H48.248V108.12H52.16V104.304Z" fill="white"/>
<path d="M52.16 123.384H48.248V127.2H52.16V123.384Z" fill="white"/>
<path d="M52.16 131.016H48.248V134.832H52.16V131.016Z" fill="white"/>
<path d="M52.16 134.832H48.248V138.648H52.16V134.832Z" fill="white"/>
<path d="M52.16 150.096H48.248V153.912H52.16V150.096Z" fill="white"/>
<path d="M52.16 153.912H48.248V157.728H52.16V153.912Z" fill="white"/>
<path d="M56.0722 5.088H52.1602V8.904H56.0722V5.088Z" fill="white"/>
<path d="M56.0722 12.72H52.1602V16.536H56.0722V12.72Z" fill="white"/>
<path d="M56.0722 16.536H52.1602V20.352H56.0722V16.536Z" fill="white"/>
<path d="M56.0722 31.8H52.1602V35.616H56.0722V31.8Z" fill="white"/>
<path d="M56.0722 35.616H52.1602V39.432H56.0722V35.616Z" fill="white"/>
<path d="M56.0722 47.064H52.1602V50.88H56.0722V47.064Z" fill="white"/>
<path d="M56.0722 50.88H52.1602V54.696H56.0722V50.88Z" fill="white"/>
<path d="M56.0722 66.144H52.1602V69.96H56.0722V66.144Z" fill="white"/>
<path d="M56.0722 69.96H52.1602V73.776H56.0722V69.96Z" fill="white"/>
<path d="M56.0722 81.408H52.1602V85.224H56.0722V81.408Z" fill="white"/>
<path d="M56.0722 85.224H52.1602V89.04H56.0722V85.224Z" fill="white"/>
<path d="M56.0722 89.04H52.1602V92.856H56.0722V89.04Z" fill="white"/>
<path d="M56.0722 92.856H52.1602V96.672H56.0722V92.856Z" fill="white"/>
<path d="M56.0722 100.488H52.1602V104.304H56.0722V100.488Z" fill="white"/>
<path d="M56.0722 111.936H52.1602V115.752H56.0722V111.936Z" fill="white"/>
<path d="M56.0722 115.752H52.1602V119.568H56.0722V115.752Z" fill="white"/>
<path d="M56.0722 119.568H52.1602V123.384H56.0722V119.568Z" fill="white"/>
<path d="M56.0722 131.016H52.1602V134.832H56.0722V131.016Z" fill="white"/>
<path d="M56.0722 134.832H52.1602V138.648H56.0722V134.832Z" fill="white"/>
<path d="M56.0722 138.648H52.1602V142.464H56.0722V138.648Z" fill="white"/>
<path d="M56.0722 146.28H52.1602V150.096H56.0722V146.28Z" fill="white"/>
<path d="M56.0722 153.912H52.1602V157.728H56.0722V153.912Z" fill="white"/>
<path d="M59.9843 1.272H56.0723V5.088H59.9843V1.272Z" fill="white"/>
<path d="M59.9843 5.088H56.0723V8.904H59.9843V5.088Z" fill="white"/>
<path d="M59.9843 12.72H56.0723V16.536H59.9843V12.72Z" fill="white"/>
<path d="M59.9843 20.352H56.0723V24.168H59.9843V20.352Z" fill="white"/>
<path d="M59.9843 24.168H56.0723V27.984H59.9843V24.168Z" fill="white"/>
<path d="M59.9843 39.432H56.0723V43.248H59.9843V39.432Z" fill="white"/>
<path d="M59.9843 50.88H56.0723V54.696H59.9843V50.88Z" fill="white"/>
<path d="M59.9843 104.304H56.0723V108.12H59.9843V104.304Z" fill="white"/>
<path d="M59.9843 111.936H56.0723V115.752H59.9843V111.936Z" fill="white"/>
<path d="M59.9843 127.2H56.0723V131.016H59.9843V127.2Z" fill="white"/>
<path d="M59.9843 131.016H56.0723V134.832H59.9843V131.016Z" fill="white"/>
<path d="M59.9843 134.832H56.0723V138.648H59.9843V134.832Z" fill="white"/>
<path d="M59.9843 153.912H56.0723V157.728H59.9843V153.912Z" fill="white"/>
<path d="M63.8964 8.904H59.9844V12.72H63.8964V8.904Z" fill="white"/>
<path d="M63.8964 12.72H59.9844V16.536H63.8964V12.72Z" fill="white"/>
<path d="M63.8964 20.352H59.9844V24.168H63.8964V20.352Z" fill="white"/>
<path d="M63.8964 27.984H59.9844V31.8H63.8964V27.984Z" fill="white"/>
<path d="M63.8964 39.432H59.9844V43.248H63.8964V39.432Z" fill="white"/>
<path d="M63.8964 43.248H59.9844V47.064H63.8964V43.248Z" fill="white"/>
<path d="M63.8964 47.064H59.9844V50.88H63.8964V47.064Z" fill="white"/>
<path d="M63.8964 108.12H59.9844V111.936H63.8964V108.12Z" fill="white"/>
<path d="M63.8964 119.568H59.9844V123.384H63.8964V119.568Z" fill="white"/>
<path d="M63.8964 127.2H59.9844V131.016H63.8964V127.2Z" fill="white"/>
<path d="M63.8964 138.648H59.9844V142.464H63.8964V138.648Z" fill="white"/>
<path d="M63.8964 142.464H59.9844V146.28H63.8964V142.464Z" fill="white"/>
<path d="M63.8964 146.28H59.9844V150.096H63.8964V146.28Z" fill="white"/>
<path d="M63.8964 150.096H59.9844V153.912H63.8964V150.096Z" fill="white"/>
<path d="M63.8964 153.912H59.9844V157.728H63.8964V153.912Z" fill="white"/>
<path d="M67.808 16.536H63.896V20.352H67.808V16.536Z" fill="white"/>
<path d="M67.808 20.352H63.896V24.168H67.808V20.352Z" fill="white"/>
<path d="M67.808 24.168H63.896V27.984H67.808V24.168Z" fill="white"/>
<path d="M67.808 27.984H63.896V31.8H67.808V27.984Z" fill="white"/>
<path d="M67.808 31.8H63.896V35.616H67.808V31.8Z" fill="white"/>
<path d="M67.808 39.432H63.896V43.248H67.808V39.432Z" fill="white"/>
<path d="M67.808 47.064H63.896V50.88H67.808V47.064Z" fill="white"/>
<path d="M67.808 104.304H63.896V108.12H67.808V104.304Z" fill="white"/>
<path d="M67.808 119.568H63.896V123.384H67.808V119.568Z" fill="white"/>
<path d="M67.808 127.2H63.896V131.016H67.808V127.2Z" fill="white"/>
<path d="M67.808 150.096H63.896V153.912H67.808V150.096Z" fill="white"/>
<path d="M71.7201 1.272H67.8081V5.088H71.7201V1.272Z" fill="white"/>
<path d="M71.7201 5.088H67.8081V8.904H71.7201V5.088Z" fill="white"/>
<path d="M71.7201 16.536H67.8081V20.352H71.7201V16.536Z" fill="white"/>
<path d="M71.7201 31.8H67.8081V35.616H71.7201V31.8Z" fill="white"/>
<path d="M71.7201 35.616H67.8081V39.432H71.7201V35.616Z" fill="white"/>
<path d="M71.7201 104.304H67.8081V108.12H71.7201V104.304Z" fill="white"/>
<path d="M71.7201 119.568H67.8081V123.384H71.7201V119.568Z" fill="white"/>
<path d="M71.7201 123.384H67.8081V127.2H71.7201V123.384Z" fill="white"/>
<path d="M71.7201 127.2H67.8081V131.016H71.7201V127.2Z" fill="white"/>
<path d="M71.7201 138.648H67.8081V142.464H71.7201V138.648Z" fill="white"/>
<path d="M71.7201 142.464H67.8081V146.28H71.7201V142.464Z" fill="white"/>
<path d="M71.7201 146.28H67.8081V150.096H71.7201V146.28Z" fill="white"/>
<path d="M75.6322 5.088H71.7202V8.904H75.6322V5.088Z" fill="white"/>
<path d="M75.6322 8.904H71.7202V12.72H75.6322V8.904Z" fill="white"/>
<path d="M75.6322 16.536H71.7202V20.352H75.6322V16.536Z" fill="white"/>
<path d="M75.6322 24.168H71.7202V27.984H75.6322V24.168Z" fill="white"/>
<path d="M75.6322 27.984H71.7202V31.8H75.6322V27.984Z" fill="white"/>
<path d="M75.6322 31.8H71.7202V35.616H75.6322V31.8Z" fill="white"/>
<path d="M75.6322 104.304H71.7202V108.12H75.6322V104.304Z" fill="white"/>
<path d="M75.6322 119.568H71.7202V123.384H75.6322V119.568Z" fill="white"/>
<path d="M75.6322 127.2H71.7202V131.016H75.6322V127.2Z" fill="white"/>
<path d="M75.6322 131.016H71.7202V134.832H75.6322V131.016Z" fill="white"/>
<path d="M75.6322 134.832H71.7202V138.648H75.6322V134.832Z" fill="white"/>
<path d="M75.6322 138.648H71.7202V142.464H75.6322V138.648Z" fill="white"/>
<path d="M75.6322 142.464H71.7202V146.28H75.6322V142.464Z" fill="white"/>
<path d="M75.6322 153.912H71.7202V157.728H75.6322V153.912Z" fill="white"/>
<path d="M79.5443 1.272H75.6323V5.088H79.5443V1.272Z" fill="white"/>
<path d="M79.5443 8.904H75.6323V12.72H79.5443V8.904Z" fill="white"/>
<path d="M79.5443 12.72H75.6323V16.536H79.5443V12.72Z" fill="white"/>
<path d="M79.5443 20.352H75.6323V24.168H79.5443V20.352Z" fill="white"/>
<path d="M79.5443 27.984H75.6323V31.8H79.5443V27.984Z" fill="white"/>
<path d="M79.5443 31.8H75.6323V35.616H79.5443V31.8Z" fill="white"/>
<path d="M79.5443 35.616H75.6323V39.432H79.5443V35.616Z" fill="white"/>
<path d="M79.5443 39.432H75.6323V43.248H79.5443V39.432Z" fill="white"/>
<path d="M79.5443 47.064H75.6323V50.88H79.5443V47.064Z" fill="white"/>
<path d="M79.5443 50.88H75.6323V54.696H79.5443V50.88Z" fill="white"/>
<path d="M79.5443 104.304H75.6323V108.12H79.5443V104.304Z" fill="white"/>
<path d="M79.5443 111.936H75.6323V115.752H79.5443V111.936Z" fill="white"/>
<path d="M79.5443 115.752H75.6323V119.568H79.5443V115.752Z" fill="white"/>
<path d="M79.5443 127.2H75.6323V131.016H79.5443V127.2Z" fill="white"/>
<path d="M79.5443 138.648H75.6323V142.464H79.5443V138.648Z" fill="white"/>
<path d="M79.5443 146.28H75.6323V150.096H79.5443V146.28Z" fill="white"/>
<path d="M79.5443 153.912H75.6323V157.728H79.5443V153.912Z" fill="white"/>
<path d="M83.4564 20.352H79.5444V24.168H83.4564V20.352Z" fill="white"/>
<path d="M83.4564 24.168H79.5444V27.984H83.4564V24.168Z" fill="white"/>
<path d="M83.4564 31.8H79.5444V35.616H83.4564V31.8Z" fill="white"/>
<path d="M83.4564 39.432H79.5444V43.248H83.4564V39.432Z" fill="white"/>
<path d="M83.4564 43.248H79.5444V47.064H83.4564V43.248Z" fill="white"/>
<path d="M83.4564 47.064H79.5444V50.88H83.4564V47.064Z" fill="white"/>
<path d="M83.4564 104.304H79.5444V108.12H83.4564V104.304Z" fill="white"/>
<path d="M83.4564 131.016H79.5444V134.832H83.4564V131.016Z" fill="white"/>
<path d="M83.4564 142.464H79.5444V146.28H83.4564V142.464Z" fill="white"/>
<path d="M83.4564 146.28H79.5444V150.096H83.4564V146.28Z" fill="white"/>
<path d="M87.3681 12.72H83.4561V16.536H87.3681V12.72Z" fill="white"/>
<path d="M87.3681 16.536H83.4561V20.352H87.3681V16.536Z" fill="white"/>
<path d="M87.3681 20.352H83.4561V24.168H87.3681V20.352Z" fill="white"/>
<path d="M87.3681 27.984H83.4561V31.8H87.3681V27.984Z" fill="white"/>
<path d="M87.3681 39.432H83.4561V43.248H87.3681V39.432Z" fill="white"/>
<path d="M87.3681 43.248H83.4561V47.064H87.3681V43.248Z" fill="white"/>
<path d="M87.3681 104.304H83.4561V108.12H87.3681V104.304Z" fill="white"/>
<path d="M87.3681 111.936H83.4561V115.752H87.3681V111.936Z" fill="white"/>
<path d="M87.3681 115.752H83.4561V119.568H87.3681V115.752Z" fill="white"/>
<path d="M87.3681 119.568H83.4561V123.384H87.3681V119.568Z" fill="white"/>
<path d="M87.3681 127.2H83.4561V131.016H87.3681V127.2Z" fill="white"/>
<path d="M87.3681 134.832H83.4561V138.648H87.3681V134.832Z" fill="white"/>
<path d="M87.3681 138.648H83.4561V142.464H87.3681V138.648Z" fill="white"/>
<path d="M87.3681 146.28H83.4561V150.096H87.3681V146.28Z" fill="white"/>
<path d="M91.2802 1.272H87.3682V5.088H91.2802V1.272Z" fill="white"/>
<path d="M91.2802 5.088H87.3682V8.904H91.2802V5.088Z" fill="white"/>
<path d="M91.2802 8.904H87.3682V12.72H91.2802V8.904Z" fill="white"/>
<path d="M91.2802 20.352H87.3682V24.168H91.2802V20.352Z" fill="white"/>
<path d="M91.2802 24.168H87.3682V27.984H91.2802V24.168Z" fill="white"/>
<path d="M91.2802 31.8H87.3682V35.616H91.2802V31.8Z" fill="white"/>
<path d="M91.2802 35.616H87.3682V39.432H91.2802V35.616Z" fill="white"/>
<path d="M91.2802 47.064H87.3682V50.88H91.2802V47.064Z" fill="white"/>
<path d="M91.2802 104.304H87.3682V108.12H91.2802V104.304Z" fill="white"/>
<path d="M91.2802 108.12H87.3682V111.936H91.2802V108.12Z" fill="white"/>
<path d="M91.2802 111.936H87.3682V115.752H91.2802V111.936Z" fill="white"/>
<path d="M91.2802 115.752H87.3682V119.568H91.2802V115.752Z" fill="white"/>
<path d="M95.1923 1.272H91.2803V5.088H95.1923V1.272Z" fill="white"/>
<path d="M95.1923 12.72H91.2803V16.536H95.1923V12.72Z" fill="white"/>
<path d="M95.1923 50.88H91.2803V54.696H95.1923V50.88Z" fill="white"/>
<path d="M95.1923 104.304H91.2803V108.12H95.1923V104.304Z" fill="white"/>
<path d="M95.1923 111.936H91.2803V115.752H95.1923V111.936Z" fill="white"/>
<path d="M95.1923 119.568H91.2803V123.384H95.1923V119.568Z" fill="white"/>
<path d="M95.1923 123.384H91.2803V127.2H95.1923V123.384Z" fill="white"/>
<path d="M95.1923 131.016H91.2803V134.832H95.1923V131.016Z" fill="white"/>
<path d="M95.1923 134.832H91.2803V138.648H95.1923V134.832Z" fill="white"/>
<path d="M95.1923 138.648H91.2803V142.464H95.1923V138.648Z" fill="white"/>
<path d="M95.1923 142.464H91.2803V146.28H95.1923V142.464Z" fill="white"/>
<path d="M95.1923 150.096H91.2803V153.912H95.1923V150.096Z" fill="white"/>
<path d="M99.1044 5.088H95.1924V8.904H99.1044V5.088Z" fill="white"/>
<path d="M99.1044 8.904H95.1924V12.72H99.1044V8.904Z" fill="white"/>
<path d="M99.1044 16.536H95.1924V20.352H99.1044V16.536Z" fill="white"/>
<path d="M99.1044 24.168H95.1924V27.984H99.1044V24.168Z" fill="white"/>
<path d="M99.1044 31.8H95.1924V35.616H99.1044V31.8Z" fill="white"/>
<path d="M99.1044 35.616H95.1924V39.432H99.1044V35.616Z" fill="white"/>
<path d="M99.1044 39.432H95.1924V43.248H99.1044V39.432Z" fill="white"/>
<path d="M99.1044 43.248H95.1924V47.064H99.1044V43.248Z" fill="white"/>
<path d="M99.1044 123.384H95.1924V127.2H99.1044V123.384Z" fill="white"/>
<path d="M99.1044 131.016H95.1924V134.832H99.1044V131.016Z" fill="white"/>
<path d="M99.1044 146.28H95.1924V150.096H99.1044V146.28Z" fill="white"/>
<path d="M99.1044 150.096H95.1924V153.912H99.1044V150.096Z" fill="white"/>
<path d="M99.1044 153.912H95.1924V157.728H99.1044V153.912Z" fill="white"/>
<path d="M103.016 43.248H99.104V47.064H103.016V43.248Z" fill="white"/>
<path d="M103.016 50.88H99.104V54.696H103.016V50.88Z" fill="white"/>
<path d="M103.016 104.304H99.104V108.12H103.016V104.304Z" fill="white"/>
<path d="M103.016 108.12H99.104V111.936H103.016V108.12Z" fill="white"/>
<path d="M103.016 111.936H99.104V115.752H103.016V111.936Z" fill="white"/>
<path d="M103.016 115.752H99.104V119.568H103.016V115.752Z" fill="white"/>
<path d="M103.016 123.384H99.104V127.2H103.016V123.384Z" fill="white"/>
<path d="M103.016 131.016H99.104V134.832H103.016V131.016Z" fill="white"/>
<path d="M103.016 134.832H99.104V138.648H103.016V134.832Z" fill="white"/>
<path d="M103.016 138.648H99.104V142.464H103.016V138.648Z" fill="white"/>
<path d="M103.016 146.28H99.104V150.096H103.016V146.28Z" fill="white"/>
<path d="M103.016 150.096H99.104V153.912H103.016V150.096Z" fill="white"/>
<path d="M103.016 153.912H99.104V157.728H103.016V153.912Z" fill="white"/>
<path d="M106.928 5.088H103.016V8.904H106.928V5.088Z" fill="white"/>
<path d="M106.928 12.72H103.016V16.536H106.928V12.72Z" fill="white"/>
<path d="M106.928 16.536H103.016V20.352H106.928V16.536Z" fill="white"/>
<path d="M106.928 24.168H103.016V27.984H106.928V24.168Z" fill="white"/>
<path d="M106.928 104.304H103.016V108.12H106.928V104.304Z" fill="white"/>
<path d="M106.928 111.936H103.016V115.752H106.928V111.936Z" fill="white"/>
<path d="M106.928 119.568H103.016V123.384H106.928V119.568Z" fill="white"/>
<path d="M106.928 123.384H103.016V127.2H106.928V123.384Z" fill="white"/>
<path d="M106.928 131.016H103.016V134.832H106.928V131.016Z" fill="white"/>
<path d="M106.928 134.832H103.016V138.648H106.928V134.832Z" fill="white"/>
<path d="M106.928 142.464H103.016V146.28H106.928V142.464Z" fill="white"/>
<path d="M106.928 153.912H103.016V157.728H106.928V153.912Z" fill="white"/>
<path d="M110.84 8.904H106.928V12.72H110.84V8.904Z" fill="white"/>
<path d="M110.84 12.72H106.928V16.536H110.84V12.72Z" fill="white"/>
<path d="M110.84 16.536H106.928V20.352H110.84V16.536Z" fill="white"/>
<path d="M110.84 20.352H106.928V24.168H110.84V20.352Z" fill="white"/>
<path d="M110.84 27.984H106.928V31.8H110.84V27.984Z" fill="white"/>
<path d="M110.84 31.8H106.928V35.616H110.84V31.8Z" fill="white"/>
<path d="M110.84 35.616H106.928V39.432H110.84V35.616Z" fill="white"/>
<path d="M110.84 43.248H106.928V47.064H110.84V43.248Z" fill="white"/>
<path d="M110.84 47.064H106.928V50.88H110.84V47.064Z" fill="white"/>
<path d="M110.84 54.696H106.928V58.512H110.84V54.696Z" fill="white"/>
<path d="M110.84 58.512H106.928V62.328H110.84V58.512Z" fill="white"/>
<path d="M110.84 66.144H106.928V69.96H110.84V66.144Z" fill="white"/>
<path d="M110.84 69.96H106.928V73.776H110.84V69.96Z" fill="white"/>
<path d="M110.84 73.776H106.928V77.592H110.84V73.776Z" fill="white"/>
<path d="M110.84 77.592H106.928V81.408H110.84V77.592Z" fill="white"/>
<path d="M110.84 85.224H106.928V89.04H110.84V85.224Z" fill="white"/>
<path d="M110.84 89.04H106.928V92.856H110.84V89.04Z" fill="white"/>
<path d="M110.84 104.304H106.928V108.12H110.84V104.304Z" fill="white"/>
<path d="M110.84 108.12H106.928V111.936H110.84V108.12Z" fill="white"/>
<path d="M110.84 115.752H106.928V119.568H110.84V115.752Z" fill="white"/>
<path d="M110.84 119.568H106.928V123.384H110.84V119.568Z" fill="white"/>
<path d="M110.84 131.016H106.928V134.832H110.84V131.016Z" fill="white"/>
<path d="M110.84 134.832H106.928V138.648H110.84V134.832Z" fill="white"/>
<path d="M110.84 142.464H106.928V146.28H110.84V142.464Z" fill="white"/>
<path d="M110.84 146.28H106.928V150.096H110.84V146.28Z" fill="white"/>
<path d="M110.84 150.096H106.928V153.912H110.84V150.096Z" fill="white"/>
<path d="M110.84 153.912H106.928V157.728H110.84V153.912Z" fill="white"/>
<path d="M114.752 1.272H110.84V5.088H114.752V1.272Z" fill="white"/>
<path d="M114.752 8.904H110.84V12.72H114.752V8.904Z" fill="white"/>
<path d="M114.752 12.72H110.84V16.536H114.752V12.72Z" fill="white"/>
<path d="M114.752 20.352H110.84V24.168H114.752V20.352Z" fill="white"/>
<path d="M114.752 24.168H110.84V27.984H114.752V24.168Z" fill="white"/>
<path d="M114.752 27.984H110.84V31.8H114.752V27.984Z" fill="white"/>
<path d="M114.752 35.616H110.84V39.432H114.752V35.616Z" fill="white"/>
<path d="M114.752 43.248H110.84V47.064H114.752V43.248Z" fill="white"/>
<path d="M114.752 47.064H110.84V50.88H114.752V47.064Z" fill="white"/>
<path d="M114.752 50.88H110.84V54.696H114.752V50.88Z" fill="white"/>
<path d="M114.752 54.696H110.84V58.512H114.752V54.696Z" fill="white"/>
<path d="M114.752 58.512H110.84V62.328H114.752V58.512Z" fill="white"/>
<path d="M114.752 62.328H110.84V66.144H114.752V62.328Z" fill="white"/>
<path d="M114.752 73.776H110.84V77.592H114.752V73.776Z" fill="white"/>
<path d="M114.752 77.592H110.84V81.408H114.752V77.592Z" fill="white"/>
<path d="M114.752 81.408H110.84V85.224H114.752V81.408Z" fill="white"/>
<path d="M114.752 85.224H110.84V89.04H114.752V85.224Z" fill="white"/>
<path d="M114.752 119.568H110.84V123.384H114.752V119.568Z" fill="white"/>
<path d="M114.752 123.384H110.84V127.2H114.752V123.384Z" fill="white"/>
<path d="M114.752 134.832H110.84V138.648H114.752V134.832Z" fill="white"/>
<path d="M114.752 142.464H110.84V146.28H114.752V142.464Z" fill="white"/>
<path d="M114.752 153.912H110.84V157.728H114.752V153.912Z" fill="white"/>
<path d="M118.664 1.272H114.752V5.088H118.664V1.272Z" fill="white"/>
<path d="M118.664 5.088H114.752V8.904H118.664V5.088Z" fill="white"/>
<path d="M118.664 12.72H114.752V16.536H118.664V12.72Z" fill="white"/>
<path d="M118.664 16.536H114.752V20.352H118.664V16.536Z" fill="white"/>
<path d="M118.664 20.352H114.752V24.168H118.664V20.352Z" fill="white"/>
<path d="M118.664 31.8H114.752V35.616H118.664V31.8Z" fill="white"/>
<path d="M118.664 35.616H114.752V39.432H118.664V35.616Z" fill="white"/>
<path d="M118.664 43.248H114.752V47.064H118.664V43.248Z" fill="white"/>
<path d="M118.664 47.064H114.752V50.88H118.664V47.064Z" fill="white"/>
<path d="M118.664 50.88H114.752V54.696H118.664V50.88Z" fill="white"/>
<path d="M118.664 54.696H114.752V58.512H118.664V54.696Z" fill="white"/>
<path d="M118.664 58.512H114.752V62.328H118.664V58.512Z" fill="white"/>
<path d="M118.664 62.328H114.752V66.144H118.664V62.328Z" fill="white"/>
<path d="M118.664 66.144H114.752V69.96H118.664V66.144Z" fill="white"/>
<path d="M118.664 69.96H114.752V73.776H118.664V69.96Z" fill="white"/>
<path d="M118.664 73.776H114.752V77.592H118.664V73.776Z" fill="white"/>
<path d="M118.664 89.04H114.752V92.856H118.664V89.04Z" fill="white"/>
<path d="M118.664 96.672H114.752V100.488H118.664V96.672Z" fill="white"/>
<path d="M118.664 100.488H114.752V104.304H118.664V100.488Z" fill="white"/>
<path d="M118.664 111.936H114.752V115.752H118.664V111.936Z" fill="white"/>
<path d="M118.664 115.752H114.752V119.568H118.664V115.752Z" fill="white"/>
<path d="M118.664 138.648H114.752V142.464H118.664V138.648Z" fill="white"/>
<path d="M118.664 142.464H114.752V146.28H118.664V142.464Z" fill="white"/>
<path d="M122.576 1.272H118.664V5.088H122.576V1.272Z" fill="white"/>
<path d="M122.576 5.088H118.664V8.904H122.576V5.088Z" fill="white"/>
<path d="M122.576 12.72H118.664V16.536H122.576V12.72Z" fill="white"/>
<path d="M122.576 16.536H118.664V20.352H122.576V16.536Z" fill="white"/>
<path d="M122.576 24.168H118.664V27.984H122.576V24.168Z" fill="white"/>
<path d="M122.576 50.88H118.664V54.696H122.576V50.88Z" fill="white"/>
<path d="M122.576 54.696H118.664V58.512H122.576V54.696Z" fill="white"/>
<path d="M122.576 58.512H118.664V62.328H122.576V58.512Z" fill="white"/>
<path d="M122.576 62.328H118.664V66.144H122.576V62.328Z" fill="white"/>
<path d="M122.576 66.144H118.664V69.96H122.576V66.144Z" fill="white"/>
<path d="M122.576 73.776H118.664V77.592H122.576V73.776Z" fill="white"/>
<path d="M122.576 96.672H118.664V100.488H122.576V96.672Z" fill="white"/>
<path d="M122.576 108.12H118.664V111.936H122.576V108.12Z" fill="white"/>
<path d="M122.576 111.936H118.664V115.752H122.576V111.936Z" fill="white"/>
<path d="M122.576 119.568H118.664V123.384H122.576V119.568Z" fill="white"/>
<path d="M122.576 127.2H118.664V131.016H122.576V127.2Z" fill="white"/>
<path d="M122.576 146.28H118.664V150.096H122.576V146.28Z" fill="white"/>
<path d="M122.576 153.912H118.664V157.728H122.576V153.912Z" fill="white"/>
<path d="M126.488 1.272H122.576V5.088H126.488V1.272Z" fill="white"/>
<path d="M126.488 5.088H122.576V8.904H126.488V5.088Z" fill="white"/>
<path d="M126.488 8.904H122.576V12.72H126.488V8.904Z" fill="white"/>
<path d="M126.488 12.72H122.576V16.536H126.488V12.72Z" fill="white"/>
<path d="M126.488 20.352H122.576V24.168H126.488V20.352Z" fill="white"/>
<path d="M126.488 31.8H122.576V35.616H126.488V31.8Z" fill="white"/>
<path d="M126.488 43.248H122.576V47.064H126.488V43.248Z" fill="white"/>
<path d="M126.488 47.064H122.576V50.88H126.488V47.064Z" fill="white"/>
<path d="M126.488 58.512H122.576V62.328H126.488V58.512Z" fill="white"/>
<path d="M126.488 62.328H122.576V66.144H126.488V62.328Z" fill="white"/>
<path d="M126.488 66.144H122.576V69.96H126.488V66.144Z" fill="white"/>
<path d="M126.488 69.96H122.576V73.776H126.488V69.96Z" fill="white"/>
<path d="M126.488 77.592H122.576V81.408H126.488V77.592Z" fill="white"/>
<path d="M126.488 81.408H122.576V85.224H126.488V81.408Z" fill="white"/>
<path d="M126.488 89.04H122.576V92.856H126.488V89.04Z" fill="white"/>
<path d="M126.488 100.488H122.576V104.304H126.488V100.488Z" fill="white"/>
<path d="M126.488 104.304H122.576V108.12H126.488V104.304Z" fill="white"/>
<path d="M126.488 108.12H122.576V111.936H126.488V108.12Z" fill="white"/>
<path d="M126.488 119.568H122.576V123.384H126.488V119.568Z" fill="white"/>
<path d="M126.488 131.016H122.576V134.832H126.488V131.016Z" fill="white"/>
<path d="M126.488 134.832H122.576V138.648H126.488V134.832Z" fill="white"/>
<path d="M126.488 142.464H122.576V146.28H126.488V142.464Z" fill="white"/>
<path d="M126.488 146.28H122.576V150.096H126.488V146.28Z" fill="white"/>
<path d="M126.488 150.096H122.576V153.912H126.488V150.096Z" fill="white"/>
<path d="M130.4 1.272H126.488V5.088H130.4V1.272Z" fill="white"/>
<path d="M130.4 5.088H126.488V8.904H130.4V5.088Z" fill="white"/>
<path d="M130.4 12.72H126.488V16.536H130.4V12.72Z" fill="white"/>
<path d="M130.4 16.536H126.488V20.352H130.4V16.536Z" fill="white"/>
<path d="M130.4 24.168H126.488V27.984H130.4V24.168Z" fill="white"/>
<path d="M130.4 39.432H126.488V43.248H130.4V39.432Z" fill="white"/>
<path d="M130.4 47.064H126.488V50.88H130.4V47.064Z" fill="white"/>
<path d="M130.4 50.88H126.488V54.696H130.4V50.88Z" fill="white"/>
<path d="M130.4 77.592H126.488V81.408H130.4V77.592Z" fill="white"/>
<path d="M130.4 81.408H126.488V85.224H130.4V81.408Z" fill="white"/>
<path d="M130.4 92.856H126.488V96.672H130.4V92.856Z" fill="white"/>
<path d="M130.4 108.12H126.488V111.936H130.4V108.12Z" fill="white"/>
<path d="M130.4 111.936H126.488V115.752H130.4V111.936Z" fill="white"/>
<path d="M130.4 119.568H126.488V123.384H130.4V119.568Z" fill="white"/>
<path d="M130.4 123.384H126.488V127.2H130.4V123.384Z" fill="white"/>
<path d="M130.4 127.2H126.488V131.016H130.4V127.2Z" fill="white"/>
<path d="M130.4 131.016H126.488V134.832H130.4V131.016Z" fill="white"/>
<path d="M130.4 134.832H126.488V138.648H130.4V134.832Z" fill="white"/>
<path d="M130.4 138.648H126.488V142.464H130.4V138.648Z" fill="white"/>
<path d="M130.4 142.464H126.488V146.28H130.4V142.464Z" fill="white"/>
<path d="M130.4 146.28H126.488V150.096H130.4V146.28Z" fill="white"/>
<path d="M130.4 150.096H126.488V153.912H130.4V150.096Z" fill="white"/>
<path d="M134.312 31.8H130.4V35.616H134.312V31.8Z" fill="white"/>
<path d="M134.312 43.248H130.4V47.064H134.312V43.248Z" fill="white"/>
<path d="M134.312 47.064H130.4V50.88H134.312V47.064Z" fill="white"/>
<path d="M134.312 54.696H130.4V58.512H134.312V54.696Z" fill="white"/>
<path d="M134.312 66.144H130.4V69.96H134.312V66.144Z" fill="white"/>
<path d="M134.312 73.776H130.4V77.592H134.312V73.776Z" fill="white"/>
<path d="M134.312 81.408H130.4V85.224H134.312V81.408Z" fill="white"/>
<path d="M134.312 89.04H130.4V92.856H134.312V89.04Z" fill="white"/>
<path d="M134.312 104.304H130.4V108.12H134.312V104.304Z" fill="white"/>
<path d="M134.312 119.568H130.4V123.384H134.312V119.568Z" fill="white"/>
<path d="M134.312 123.384H130.4V127.2H134.312V123.384Z" fill="white"/>
<path d="M134.312 138.648H130.4V142.464H134.312V138.648Z" fill="white"/>
<path d="M134.312 146.28H130.4V150.096H134.312V146.28Z" fill="white"/>
<path d="M138.224 31.8H134.312V35.616H138.224V31.8Z" fill="white"/>
<path d="M138.224 43.248H134.312V47.064H138.224V43.248Z" fill="white"/>
<path d="M138.224 47.064H134.312V50.88H138.224V47.064Z" fill="white"/>
<path d="M138.224 50.88H134.312V54.696H138.224V50.88Z" fill="white"/>
<path d="M138.224 54.696H134.312V58.512H138.224V54.696Z" fill="white"/>
<path d="M138.224 62.328H134.312V66.144H138.224V62.328Z" fill="white"/>
<path d="M138.224 73.776H134.312V77.592H138.224V73.776Z" fill="white"/>
<path d="M138.224 81.408H134.312V85.224H138.224V81.408Z" fill="white"/>
<path d="M138.224 89.04H134.312V92.856H138.224V89.04Z" fill="white"/>
<path d="M138.224 96.672H134.312V100.488H138.224V96.672Z" fill="white"/>
<path d="M138.224 104.304H134.312V108.12H138.224V104.304Z" fill="white"/>
<path d="M138.224 111.936H134.312V115.752H138.224V111.936Z" fill="white"/>
<path d="M138.224 115.752H134.312V119.568H138.224V115.752Z" fill="white"/>
<path d="M138.224 123.384H134.312V127.2H138.224V123.384Z" fill="white"/>
<path d="M138.224 131.016H134.312V134.832H138.224V131.016Z" fill="white"/>
<path d="M138.224 138.648H134.312V142.464H138.224V138.648Z" fill="white"/>
<path d="M138.224 142.464H134.312V146.28H138.224V142.464Z" fill="white"/>
<path d="M138.224 146.28H134.312V150.096H138.224V146.28Z" fill="white"/>
<path d="M138.224 150.096H134.312V153.912H138.224V150.096Z" fill="white"/>
<path d="M142.136 35.616H138.224V39.432H142.136V35.616Z" fill="white"/>
<path d="M142.136 39.432H138.224V43.248H142.136V39.432Z" fill="white"/>
<path d="M142.136 43.248H138.224V47.064H142.136V43.248Z" fill="white"/>
<path d="M142.136 50.88H138.224V54.696H142.136V50.88Z" fill="white"/>
<path d="M142.136 58.512H138.224V62.328H142.136V58.512Z" fill="white"/>
<path d="M142.136 62.328H138.224V66.144H142.136V62.328Z" fill="white"/>
<path d="M142.136 66.144H138.224V69.96H142.136V66.144Z" fill="white"/>
<path d="M142.136 73.776H138.224V77.592H142.136V73.776Z" fill="white"/>
<path d="M142.136 77.592H138.224V81.408H142.136V77.592Z" fill="white"/>
<path d="M142.136 81.408H138.224V85.224H142.136V81.408Z" fill="white"/>
<path d="M142.136 85.224H138.224V89.04H142.136V85.224Z" fill="white"/>
<path d="M142.136 89.04H138.224V92.856H142.136V89.04Z" fill="white"/>
<path d="M142.136 92.856H138.224V96.672H142.136V92.856Z" fill="white"/>
<path d="M142.136 104.304H138.224V108.12H142.136V104.304Z" fill="white"/>
<path d="M142.136 108.12H138.224V111.936H142.136V108.12Z" fill="white"/>
<path d="M142.136 111.936H138.224V115.752H142.136V111.936Z" fill="white"/>
<path d="M142.136 119.568H138.224V123.384H142.136V119.568Z" fill="white"/>
<path d="M142.136 123.384H138.224V127.2H142.136V123.384Z" fill="white"/>
<path d="M142.136 138.648H138.224V142.464H142.136V138.648Z" fill="white"/>
<path d="M146.048 31.8H142.136V35.616H146.048V31.8Z" fill="white"/>
<path d="M146.048 73.776H142.136V77.592H146.048V73.776Z" fill="white"/>
<path d="M146.048 77.592H142.136V81.408H146.048V77.592Z" fill="white"/>
<path d="M146.048 81.408H142.136V85.224H146.048V81.408Z" fill="white"/>
<path d="M146.048 89.04H142.136V92.856H146.048V89.04Z" fill="white"/>
<path d="M146.048 96.672H142.136V100.488H146.048V96.672Z" fill="white"/>
<path d="M146.048 100.488H142.136V104.304H146.048V100.488Z" fill="white"/>
<path d="M146.048 104.304H142.136V108.12H146.048V104.304Z" fill="white"/>
<path d="M146.048 111.936H142.136V115.752H146.048V111.936Z" fill="white"/>
<path d="M146.048 115.752H142.136V119.568H146.048V115.752Z" fill="white"/>
<path d="M146.048 119.568H142.136V123.384H146.048V119.568Z" fill="white"/>
<path d="M146.048 123.384H142.136V127.2H146.048V123.384Z" fill="white"/>
<path d="M146.048 127.2H142.136V131.016H146.048V127.2Z" fill="white"/>
<path d="M146.048 131.016H142.136V134.832H146.048V131.016Z" fill="white"/>
<path d="M146.048 134.832H142.136V138.648H146.048V134.832Z" fill="white"/>
<path d="M146.048 138.648H142.136V142.464H146.048V138.648Z" fill="white"/>
<path d="M146.048 150.096H142.136V153.912H146.048V150.096Z" fill="white"/>
<path d="M146.048 153.912H142.136V157.728H146.048V153.912Z" fill="white"/>
<path d="M149.96 31.8H146.048V35.616H149.96V31.8Z" fill="white"/>
<path d="M149.96 35.616H146.048V39.432H149.96V35.616Z" fill="white"/>
<path d="M149.96 39.432H146.048V43.248H149.96V39.432Z" fill="white"/>
<path d="M149.96 47.064H146.048V50.88H149.96V47.064Z" fill="white"/>
<path d="M149.96 54.696H146.048V58.512H149.96V54.696Z" fill="white"/>
<path d="M149.96 58.512H146.048V62.328H149.96V58.512Z" fill="white"/>
<path d="M149.96 73.776H146.048V77.592H149.96V73.776Z" fill="white"/>
<path d="M149.96 77.592H146.048V81.408H149.96V77.592Z" fill="white"/>
<path d="M149.96 85.224H146.048V89.04H149.96V85.224Z" fill="white"/>
<path d="M149.96 89.04H146.048V92.856H149.96V89.04Z" fill="white"/>
<path d="M149.96 96.672H146.048V100.488H149.96V96.672Z" fill="white"/>
<path d="M149.96 100.488H146.048V104.304H149.96V100.488Z" fill="white"/>
<path d="M149.96 108.12H146.048V111.936H149.96V108.12Z" fill="white"/>
<path d="M149.96 111.936H146.048V115.752H149.96V111.936Z" fill="white"/>
<path d="M149.96 123.384H146.048V127.2H149.96V123.384Z" fill="white"/>
<path d="M149.96 134.832H146.048V138.648H149.96V134.832Z" fill="white"/>
<path d="M149.96 150.096H146.048V153.912H149.96V150.096Z" fill="white"/>
<path d="M149.96 153.912H146.048V157.728H149.96V153.912Z" fill="white"/>
<path d="M153.872 62.328H149.96V66.144H153.872V62.328Z" fill="white"/>
<path d="M153.872 66.144H149.96V69.96H153.872V66.144Z" fill="white"/>
<path d="M153.872 81.408H149.96V85.224H153.872V81.408Z" fill="white"/>
<path d="M153.872 89.04H149.96V92.856H153.872V89.04Z" fill="white"/>
<path d="M153.872 92.856H149.96V96.672H153.872V92.856Z" fill="white"/>
<path d="M153.872 104.304H149.96V108.12H153.872V104.304Z" fill="white"/>
<path d="M153.872 111.936H149.96V115.752H153.872V111.936Z" fill="white"/>
<path d="M153.872 123.384H149.96V127.2H153.872V123.384Z" fill="white"/>
<path d="M153.872 127.2H149.96V131.016H153.872V127.2Z" fill="white"/>
<path d="M153.872 134.832H149.96V138.648H153.872V134.832Z" fill="white"/>
<path d="M153.872 138.648H149.96V142.464H153.872V138.648Z" fill="white"/>
<path d="M153.872 146.28H149.96V150.096H153.872V146.28Z" fill="white"/>
<path d="M153.872 150.096H149.96V153.912H153.872V150.096Z" fill="white"/>
<path d="M153.872 153.912H149.96V157.728H153.872V153.912Z" fill="white"/>
<path d="M157.784 39.432H153.872V43.248H157.784V39.432Z" fill="white"/>
<path d="M157.784 43.248H153.872V47.064H157.784V43.248Z" fill="white"/>
<path d="M157.784 47.064H153.872V50.88H157.784V47.064Z" fill="white"/>
<path d="M157.784 50.88H153.872V54.696H157.784V50.88Z" fill="white"/>
<path d="M157.784 62.328H153.872V66.144H157.784V62.328Z" fill="white"/>
<path d="M157.784 73.776H153.872V77.592H157.784V73.776Z" fill="white"/>
<path d="M157.784 85.224H153.872V89.04H157.784V85.224Z" fill="white"/>
<path d="M157.784 89.04H153.872V92.856H157.784V89.04Z" fill="white"/>
<path d="M157.784 96.672H153.872V100.488H157.784V96.672Z" fill="white"/>
<path d="M157.784 100.488H153.872V104.304H157.784V100.488Z" fill="white"/>
<path d="M157.784 115.752H153.872V119.568H157.784V115.752Z" fill="white"/>
<path d="M157.784 131.016H153.872V134.832H157.784V131.016Z" fill="white"/>
<path d="M157.784 138.648H153.872V142.464H157.784V138.648Z" fill="white"/>
<path d="M157.784 142.464H153.872V146.28H157.784V142.464Z" fill="white"/>
<path d="M157.784 146.28H153.872V150.096H157.784V146.28Z" fill="white"/>
<path d="M157.784 153.912H153.872V157.728H157.784V153.912Z" fill="white"/>
<path d="M161.696 35.616H157.784V39.432H161.696V35.616Z" fill="white"/>
<path d="M161.696 43.248H157.784V47.064H161.696V43.248Z" fill="white"/>
<path d="M161.696 47.064H157.784V50.88H161.696V47.064Z" fill="white"/>
<path d="M161.696 50.88H157.784V54.696H161.696V50.88Z" fill="white"/>
<path d="M161.696 54.696H157.784V58.512H161.696V54.696Z" fill="white"/>
<path d="M161.696 62.328H157.784V66.144H161.696V62.328Z" fill="white"/>
<path d="M161.696 66.144H157.784V69.96H161.696V66.144Z" fill="white"/>
<path d="M161.696 81.408H157.784V85.224H161.696V81.408Z" fill="white"/>
<path d="M161.696 89.04H157.784V92.856H161.696V89.04Z" fill="white"/>
<path d="M161.696 100.488H157.784V104.304H161.696V100.488Z" fill="white"/>
<path d="M161.696 104.304H157.784V108.12H161.696V104.304Z" fill="white"/>
<path d="M161.696 119.568H157.784V123.384H161.696V119.568Z" fill="white"/>
<path d="M161.696 123.384H157.784V127.2H161.696V123.384Z" fill="white"/>
<path d="M161.696 127.2H157.784V131.016H161.696V127.2Z" fill="white"/>
<path d="M161.696 131.016H157.784V134.832H161.696V131.016Z" fill="white"/>
<path d="M161.696 138.648H157.784V142.464H161.696V138.648Z" fill="white"/>
</mask>
<g mask="url(#mask0_22_50)">
<path d="M163 0H0V159H163V0Z" fill="#1A1A1A"/>
</g>
<mask id="mask1_22_50" style="mask-type:luminance" maskUnits="userSpaceOnUse" x="1" y="1" width="28" height="27">
<path fill-rule="evenodd" clip-rule="evenodd" d="M1.3042 1.272V27.984H28.6882V1.272H1.3042ZM5.2162 5.088H24.7762V24.168H5.2162V5.088Z" fill="white"/>
<path d="M13.0404 8.904H9.12842V12.72H13.0404V8.904Z" fill="white"/>
<path d="M13.0404 12.72H9.12842V16.536H13.0404V12.72Z" fill="white"/>
<path d="M13.0404 16.536H9.12842V20.352H13.0404V16.536Z" fill="white"/>
<path d="M16.952 8.904H13.04V12.72H16.952V8.904Z" fill="white"/>
<path d="M16.952 12.72H13.04V16.536H16.952V12.72Z" fill="white"/>
<path d="M16.952 16.536H13.04V20.352H16.952V16.536Z" fill="white"/>
<path d="M20.8641 8.904H16.9521V12.72H20.8641V8.904Z" fill="white"/>
<path d="M20.8641 12.72H16.9521V16.536H20.8641V12.72Z" fill="white"/>
<path d="M20.8641 16.536H16.9521V20.352H20.8641V16.536Z" fill="white"/>
</mask>
<g mask="url(#mask1_22_50)">
<path d="M28.6882 1.272H1.3042V27.984H28.6882V1.272Z" fill="#1A1A1A"/>
</g>
<mask id="mask2_22_50" style="mask-type:luminance" maskUnits="userSpaceOnUse" x="134" y="1" width="28" height="27">
<path fill-rule="evenodd" clip-rule="evenodd" d="M161.696 1.272L134.312 1.272V27.984H161.696V1.272ZM157.784 5.088V24.168H138.224V5.088L157.784 5.088Z" fill="white"/>
<path d="M146.048 8.904H142.136V12.72H146.048V8.904Z" fill="white"/>
<path d="M146.048 12.72H142.136V16.536H146.048V12.72Z" fill="white"/>
<path d="M146.048 16.536H142.136V20.352H146.048V16.536Z" fill="white"/>
<path d="M149.96 8.904H146.048V12.72H149.96V8.904Z" fill="white"/>
<path d="M149.96 12.72H146.048V16.536H149.96V12.72Z" fill="white"/>
<path d="M149.96 16.536H146.048V20.352H149.96V16.536Z" fill="white"/>
<path d="M153.872 8.904H149.96V12.72H153.872V8.904Z" fill="white"/>
<path d="M153.872 12.72H149.96V16.536H153.872V12.72Z" fill="white"/>
<path d="M153.872 16.536H149.96V20.352H153.872V16.536Z" fill="white"/>
</mask>
<g mask="url(#mask2_22_50)">
<path d="M161.696 1.272H134.312V27.984H161.696V1.272Z" fill="#1A1A1A"/>
</g>
<mask id="mask3_22_50" style="mask-type:luminance" maskUnits="userSpaceOnUse" x="1" y="131" width="28" height="27">
<path fill-rule="evenodd" clip-rule="evenodd" d="M1.3042 157.728H28.6882L28.6882 131.016H1.3042L1.3042 157.728ZM5.2162 153.912L5.2162 134.832H24.7762V153.912H5.2162Z" fill="white"/>
<path d="M13.0404 138.648H9.12842V142.464H13.0404V138.648Z" fill="white"/>
<path d="M13.0404 142.464H9.12842V146.28H13.0404V142.464Z" fill="white"/>
<path d="M13.0404 146.28H9.12842V150.096H13.0404V146.28Z" fill="white"/>
<path d="M16.952 138.648H13.04V142.464H16.952V138.648Z" fill="white"/>
<path d="M16.952 142.464H13.04V146.28H16.952V142.464Z" fill="white"/>
<path d="M16.952 146.28H13.04V150.096H16.952V146.28Z" fill="white"/>
<path d="M20.8641 138.648H16.9521V142.464H20.8641V138.648Z" fill="white"/>
<path d="M20.8641 142.464H16.9521V146.28H20.8641V142.464Z" fill="white"/>
<path d="M20.8641 146.28H16.9521V150.096H20.8641V146.28Z" fill="white"/>
</mask>
<g mask="url(#mask3_22_50)">
<path d="M28.6882 131.016H1.3042V157.728H28.6882V131.016Z" fill="#1A1A1A"/>
</g>
<path d="M96.0465 82.8384L86.0715 77.5L96.0465 72.1616C96.8739 71.7188 97.1661 70.6998 96.6941 69.9032L95.3277 67.5967C94.8558 66.8001 93.8042 66.5372 92.9971 67.0141L83.2657 72.7639L83.5095 61.6758C83.5297 60.7561 82.7703 60 81.8264 60H79.0936C78.1498 60 77.3903 60.7561 77.4106 61.6758L77.6543 72.7639L67.9229 67.0142C67.1159 66.5373 66.0642 66.8002 65.5923 67.5968L64.2259 69.9033C63.754 70.6999 64.0462 71.7189 64.8735 72.1617L74.8485 77.5L64.8735 82.8384C64.0461 83.2812 63.7539 84.3002 64.2259 85.0968L65.5923 87.4033C66.0642 88.1999 67.1159 88.4628 67.9229 87.9859L77.6543 82.2361L77.4105 93.3242C77.3903 94.2439 78.1498 95 79.0936 95H81.8265C82.7703 95 83.5298 94.2439 83.5095 93.3242L83.2657 82.2361L92.9971 87.9858C93.8041 88.4627 94.8558 88.1998 95.3277 87.4032L96.6941 85.0967C97.166 84.3001 96.8739 83.2812 96.0465 82.8384Z" fill="#76B5A0"/>
</g>
<defs>
<clipPath id="clip0_22_50">
<rect width="163" height="159" fill="white"/>
</clipPath>
</defs>
</svg>
