<svg width="135" height="150" viewBox="0 0 135 150" fill="none" xmlns="http://www.w3.org/2000/svg">
<path d="M21.4375 110.188C12.2708 100.979 7.6875 89.9792 7.6875 77.1875C7.6875 64.3958 12.2708 53.4167 21.4375 44.25C30.6042 35.0833 41.5833 30.5 54.375 30.5C64.7917 30.5 74.2708 33.7292 82.8125 40.1875L75.375 47.625C68.875 42.6667 61.875 40.1875 54.375 40.1875C44.6667 40.1875 36.375 43.8125 29.5 51.0625C22.625 58.3125 19.1875 67.0208 19.1875 77.1875C19.1875 87.3542 22.625 96.0625 29.5 103.312C36.375 110.562 44.6667 114.188 54.375 114.188C62.0417 114.188 69.0417 111.75 75.375 106.875L82.8125 114.312C74.1875 120.729 64.7083 123.938 54.375 123.938C41.5833 123.938 30.6042 119.354 21.4375 110.188Z" fill="white"/>
<path d="M94 38L113.053 77H74.9474L94 38Z" fill="white"/>
<path d="M94 116L74.9474 77H113.053L94 116Z" fill="white"/>
<path d="M134 77L95 96.0526V57.9474L134 77Z" fill="white"/>
<path d="M54 77L93 57.9474V96.0526L54 77Z" fill="white"/>
</svg>
